<svg version="1.1" id="Layer_1" xmlns="http://www.w3.org/2000/svg" xmlns:xlink="http://www.w3.org/1999/xlink" x="0px" y="0px"
	 width="339.113" height="165.168"  viewBox="0 0 500 500" enable-background="new 0 0 500 500" xml:space="preserve">
<path fill="#FFFFFF" opacity="1.000000" stroke="none" 
	d="
M264.000000,501.000000 
	C176.000015,501.000000 88.500038,501.000000 1.000047,501.000000 
	C1.000031,334.333405 1.000031,167.666794 1.000016,1.000136 
	C167.666565,1.000091 334.333130,1.000091 500.999756,1.000046 
	C500.999847,167.666519 500.999847,334.333038 500.999939,500.999786 
	C422.166656,501.000000 343.333344,501.000000 264.000000,501.000000 
M149.758591,209.716599 
	C119.959274,202.556122 93.042068,209.218094 70.036110,228.753174 
	C37.361526,256.498169 29.178633,300.523651 48.267208,338.770477 
	C65.673805,373.647156 107.147118,393.951447 144.608978,386.647339 
	C193.081299,377.196503 224.439163,332.230560 218.181015,285.393494 
	C213.421509,249.772659 186.036560,218.336075 149.758591,209.716599 
M479.577240,345.134521 
	C480.493896,344.457214 481.410583,343.779907 481.481232,343.727692 
	C484.812378,346.493683 487.425873,349.766693 490.821259,351.250824 
	C497.640442,354.231567 500.352661,351.617218 498.928040,344.287415 
	C491.066528,342.822784 490.173553,341.744720 490.150330,333.316315 
	C490.120056,322.329773 490.154510,311.343079 490.129150,300.356506 
	C490.125519,298.777008 489.943268,297.197876 489.846893,295.669830 
	C486.867340,295.669830 484.456055,295.669830 482.013031,295.669830 
	C481.612366,297.684662 481.276062,299.375885 480.921326,301.159760 
	C461.443634,291.212677 447.435303,293.055023 437.797211,306.621460 
	C429.511780,318.283905 431.003204,333.966797 441.347992,343.958679 
	C451.924469,354.174408 466.968628,354.831085 479.577240,345.134521 
M70.496368,121.252312 
	C64.414276,121.252312 58.332188,121.252312 52.330368,121.252312 
	C52.330368,110.605263 52.330368,100.737854 52.330368,90.361359 
	C65.500801,90.361359 78.240234,90.361359 90.998566,90.361359 
	C90.998566,86.972565 90.998566,84.117096 90.998566,81.433365 
	C74.503525,81.433365 58.450386,81.433365 42.345131,81.433365 
	C42.345131,111.382271 42.345131,140.939896 42.345131,170.584839 
	C45.637630,170.584839 48.647747,170.584839 52.047615,170.584839 
	C52.047615,157.233124 52.047615,144.309586 52.047615,130.836823 
	C63.492260,130.836823 74.555038,130.836823 85.762627,130.836823 
	C85.762627,127.404457 85.762627,124.537392 85.762627,121.252617 
	C80.760277,121.252617 76.127274,121.252617 70.496368,121.252312 
M264.445923,284.213928 
	C263.243927,295.811279 266.982697,302.796875 277.502777,308.046661 
	C283.745850,311.162079 290.287872,313.703796 296.410828,317.027832 
	C303.311401,320.774017 305.739502,326.624939 303.939331,333.267303 
	C302.430145,338.835907 296.814575,342.639130 289.714844,343.057068 
	C280.026550,343.627350 273.088654,339.436676 268.665833,330.512787 
	C265.836914,332.244904 263.371460,333.754486 260.958008,335.232208 
	C267.288544,348.607208 281.464111,354.855255 295.958069,351.039825 
	C308.726776,347.678589 315.525024,336.987213 312.993134,324.155121 
	C311.432343,316.244812 306.091797,311.476929 299.237549,308.123535 
	C292.820923,304.984283 286.145660,302.331177 279.911285,298.874298 
	C274.087646,295.645233 271.936493,289.981201 273.518127,284.542969 
	C275.065369,279.222961 279.558105,276.170776 286.065887,275.737854 
	C292.654999,275.299561 298.061584,277.658173 302.651947,282.735687 
	C304.985657,280.753235 307.078156,278.975647 309.149811,277.215759 
	C302.683167,268.839111 292.098541,264.920959 281.728699,267.189514 
	C272.883789,269.124420 266.876465,274.344391 264.445923,284.213928 
M307.210297,169.833603 
	C314.957458,150.453110 322.704651,131.072617 330.530151,111.496162 
	C320.439819,110.333954 320.423248,110.327621 317.210785,118.733612 
	C314.182281,126.658249 311.194000,134.598251 308.187439,142.531250 
	C306.116882,147.994522 304.045380,153.457443 301.568451,159.991104 
	C295.896881,145.434052 290.709930,132.114441 285.517914,118.796822 
	C282.397125,110.791878 282.393402,110.787804 273.954651,111.079498 
	C273.512177,111.094795 273.077393,111.333389 272.321594,111.565521 
	C273.150085,113.676010 273.911560,115.677078 274.717804,117.659935 
	C281.359314,133.993561 287.930725,150.356506 294.721588,166.627853 
	C296.104279,169.940796 296.279999,172.776398 294.826233,176.118332 
	C291.111633,184.657440 287.714935,193.335266 284.226868,201.972061 
	C283.636749,203.433258 283.224854,204.966431 282.693237,206.579773 
	C291.956696,207.591705 291.937744,207.584045 295.125885,199.692627 
	C299.051575,189.975647 303.012909,180.273071 307.210297,169.833603 
M211.835922,149.499863 
	C211.835922,139.767166 211.835922,130.034485 211.835922,119.846664 
	C217.614304,119.846664 222.533630,119.846664 227.407562,119.846664 
	C227.407562,116.647705 227.407562,113.950699 227.407562,110.800003 
	C222.045654,110.800003 217.119492,110.800003 211.835999,110.800003 
	C211.835999,108.698898 211.832474,107.059776 211.836594,105.420670 
	C211.859558,96.262131 211.713943,87.098671 211.978134,77.947060 
	C212.117020,73.135796 215.546600,70.203484 220.509888,69.946358 
	C222.768707,69.829330 225.038635,69.926468 227.202713,69.926468 
	C228.263962,62.168221 227.319321,61.023098 220.370148,60.883621 
	C209.951721,60.674507 202.462112,67.859604 202.247269,78.579521 
	C202.070465,87.402054 202.206253,96.230850 202.203766,105.056870 
	C202.203232,106.962685 202.203705,108.868500 202.203705,111.234215 
	C198.433121,111.234215 195.514755,111.234215 192.435364,111.234215 
	C192.435364,114.295433 192.435364,116.882790 192.435364,119.775131 
	C195.718887,119.978523 198.782425,120.168282 202.279755,120.384918 
	C202.279755,137.318024 202.279755,153.904160 202.279755,170.698853 
	C205.628983,170.698853 208.508621,170.698853 211.835754,170.698853 
	C211.835754,163.753510 211.835754,157.126648 211.835922,149.499863 
M372.689667,344.211823 
	C373.570984,343.216919 374.497192,342.257935 375.326721,341.221558 
	C383.092224,331.519226 383.942230,319.535645 377.663940,308.569336 
	C372.216858,299.054901 360.359222,293.032593 349.840576,294.438293 
	C337.500092,296.087463 327.718048,304.696899 324.843964,316.438477 
	C321.935883,328.318787 326.817108,340.699829 337.029144,347.345581 
	C348.204834,354.618530 360.967773,353.647736 372.689667,344.211823 
M243.752319,166.379578 
	C243.862701,167.810669 243.973083,169.241760 244.081726,170.650421 
	C247.208099,170.650421 249.933273,170.650421 253.070129,170.650421 
	C253.070129,153.714722 253.070129,137.128754 253.070129,119.960281 
	C258.534821,119.960281 263.597595,119.960281 268.551819,119.960281 
	C268.551819,116.650253 268.551819,113.943787 268.551819,110.828598 
	C263.201324,110.828598 258.271332,110.828598 253.021622,110.828598 
	C253.021622,99.614990 252.864639,88.817055 253.094223,78.027344 
	C253.194550,73.312111 256.801788,70.196762 261.609314,69.929276 
	C263.881866,69.802826 266.167297,69.907578 268.357178,69.907578 
	C269.449585,62.234638 268.451508,60.471981 261.623260,61.122929 
	C257.268616,61.538063 252.664673,63.378677 248.989014,65.813011 
	C244.767365,68.608963 243.690628,73.594513 243.732269,78.691086 
	C243.819031,89.307159 243.758530,99.924438 243.758530,110.794464 
	C240.141052,110.973625 237.071686,111.125633 233.878784,111.283768 
	C233.878784,114.368721 233.878784,117.071655 233.878784,120.175644 
	C237.229431,120.175644 240.170120,120.175644 243.751892,120.175644 
	C243.751892,135.518021 243.751892,150.459946 243.752319,166.379578 
M152.625687,162.163025 
	C146.808289,160.311111 144.023941,156.063919 143.726959,150.227768 
	C143.439560,144.580124 143.530060,138.911911 143.507004,133.252502 
	C143.477280,125.963295 143.499756,118.673882 143.499756,111.322548 
	C140.143723,111.322548 137.385147,111.322548 134.463760,111.322548 
	C134.463760,125.543991 133.678940,139.539185 134.694489,153.402481 
	C135.625595,166.113098 145.422440,172.794571 159.114197,172.013443 
	C170.653976,171.355087 178.725235,162.793808 179.006531,150.546829 
	C179.220596,141.226944 179.083908,131.898972 179.099075,122.574585 
	C179.105179,118.821030 179.100098,115.067467 179.100098,111.459129 
	C175.610397,111.459129 172.896179,111.459129 169.988449,111.459129 
	C169.988449,124.029991 170.099060,136.180679 169.954437,148.328339 
	C169.832718,158.550461 163.276764,163.993347 152.625687,162.163025 
M409.830658,273.543579 
	C409.831757,271.377136 409.802826,269.210175 409.839508,267.044342 
	C409.957764,260.063660 413.099396,257.061920 420.055847,257.224976 
	C421.462372,257.257965 422.870392,257.229736 424.217590,257.229736 
	C424.797821,250.043457 424.026611,249.138031 417.815430,248.943314 
	C408.411194,248.648483 401.204102,255.381485 401.056702,264.913605 
	C400.902710,274.869324 401.022308,284.829285 401.022308,294.984009 
	C397.746368,295.224213 394.997772,295.425720 392.264526,295.626099 
	C392.264526,298.529358 392.264526,301.074951 392.264526,303.742096 
	C395.270660,303.884399 397.879761,304.007935 401.029907,304.157074 
	C401.029907,319.794037 401.029907,335.194489 401.029907,350.740845 
	C404.164276,350.740845 406.737549,350.740845 409.922546,350.740845 
	C409.922546,335.085938 409.922546,319.697266 409.922546,303.787292 
	C415.099823,303.787292 419.677826,303.787292 424.279236,303.787292 
	C424.279236,300.699524 424.279236,298.161285 424.279236,295.046936 
	C419.295929,295.046936 414.731628,295.046936 409.830505,295.046936 
	C409.830505,287.819641 409.830505,281.175079 409.830658,273.543579 
M104.971283,81.500183 
	C104.971283,111.218590 104.971283,140.936996 104.971283,170.652008 
	C108.349617,170.652008 111.076469,170.652008 113.783844,170.652008 
	C113.783844,133.955383 113.783844,97.606934 113.783844,61.237835 
	C110.722527,61.237835 108.006508,61.237835 104.971275,61.237835 
	C104.971275,67.900574 104.971275,74.200485 104.971283,81.500183 
z"/>
<path fill="#82C3C9" opacity="1.000000" stroke="none" 
	d="
M150.161896,209.807831 
	C186.036560,218.336075 213.421509,249.772659 218.181015,285.393494 
	C224.439163,332.230560 193.081299,377.196503 144.608978,386.647339 
	C107.147118,393.951447 65.673805,373.647156 48.267208,338.770477 
	C29.178633,300.523651 37.361526,256.498169 70.036110,228.753174 
	C93.042068,209.218094 119.959274,202.556122 150.161896,209.807831 
M133.811050,304.334015 
	C135.259735,300.794281 136.609894,297.208923 138.216644,293.742432 
	C138.703888,292.691254 139.879639,291.236969 140.775391,291.211487 
	C148.023438,291.005402 155.279922,291.095856 162.639297,291.095856 
	C160.993271,310.523041 159.400208,329.325195 157.814163,348.044556 
	C163.536865,350.138153 163.509521,346.310272 163.894073,343.306366 
	C166.044052,326.512390 168.034149,309.697784 170.228989,292.909851 
	C171.115799,286.126801 169.626053,284.111420 162.804733,284.053467 
	C156.161301,283.997040 149.516998,284.041229 142.202957,284.041229 
	C145.885040,275.111237 149.384186,266.708771 152.814026,258.278107 
	C155.223846,252.354721 153.896881,250.401672 147.534561,250.024948 
	C129.116486,248.934418 110.700943,247.800827 92.285942,246.659409 
	C87.708679,246.375702 85.613060,248.646317 86.979073,252.883179 
	C90.752922,264.588257 94.578636,276.279419 98.661484,287.878326 
	C99.133774,289.220032 101.310486,290.738129 102.772301,290.819397 
	C108.753418,291.151947 114.786888,290.634125 120.756248,291.059082 
	C125.805107,291.418488 128.155533,289.497711 128.402206,284.040405 
	C121.595886,284.040405 114.813057,284.198975 108.048416,283.918701 
	C106.530670,283.855804 104.131363,282.553711 103.744606,281.318878 
	C100.978325,272.486786 98.627831,263.524475 95.995895,254.067078 
	C112.330185,255.217178 128.127426,256.329468 144.983475,257.516327 
	C133.052841,288.165222 121.410805,318.072784 109.760696,348.001038 
	C113.808998,349.728333 115.631920,348.270691 116.910690,345.132965 
	C122.370209,331.737122 127.927483,318.381073 133.811050,304.334015 
z"/>
<path fill="#AD7D63" opacity="1.000000" stroke="none" 
	d="
M479.310669,345.369324 
	C466.968628,354.831085 451.924469,354.174408 441.347992,343.958679 
	C431.003204,333.966797 429.511780,318.283905 437.797211,306.621460 
	C447.435303,293.055023 461.443634,291.212677 480.921326,301.159760 
	C481.276062,299.375885 481.612366,297.684662 482.013031,295.669830 
	C484.456055,295.669830 486.867340,295.669830 489.846893,295.669830 
	C489.943268,297.197876 490.125519,298.777008 490.129150,300.356506 
	C490.154510,311.343079 490.120056,322.329773 490.150330,333.316315 
	C490.173553,341.744720 491.066528,342.822784 498.928040,344.287415 
	C500.352661,351.617218 497.640442,354.231567 490.821259,351.250824 
	C487.425873,349.766693 484.812378,346.493683 481.481232,343.727692 
	C481.410583,343.779907 480.493896,344.457214 479.310669,345.369324 
M450.479584,340.240967 
	C460.675751,345.590942 470.801758,343.809753 477.277710,335.527039 
	C483.142090,328.026550 482.765869,316.970459 476.403687,309.839722 
	C468.487549,300.967346 455.035156,300.742737 446.768463,309.344849 
	C438.181122,318.280548 439.486755,331.301300 450.479584,340.240967 
z"/>
<path fill="#AE7F65" opacity="1.000000" stroke="none" 
	d="
M70.995316,121.252464 
	C76.127274,121.252617 80.760277,121.252617 85.762627,121.252617 
	C85.762627,124.537392 85.762627,127.404457 85.762627,130.836823 
	C74.555038,130.836823 63.492260,130.836823 52.047615,130.836823 
	C52.047615,144.309586 52.047615,157.233124 52.047615,170.584839 
	C48.647747,170.584839 45.637630,170.584839 42.345131,170.584839 
	C42.345131,140.939896 42.345131,111.382271 42.345131,81.433365 
	C58.450386,81.433365 74.503525,81.433365 90.998566,81.433365 
	C90.998566,84.117096 90.998566,86.972565 90.998566,90.361359 
	C78.240234,90.361359 65.500801,90.361359 52.330368,90.361359 
	C52.330368,100.737854 52.330368,110.605263 52.330368,121.252312 
	C58.332188,121.252312 64.414276,121.252312 70.995316,121.252464 
z"/>
<path fill="#AD7D63" opacity="1.000000" stroke="none" 
	d="
M264.559204,283.812714 
	C266.876465,274.344391 272.883789,269.124420 281.728699,267.189514 
	C292.098541,264.920959 302.683167,268.839111 309.149811,277.215759 
	C307.078156,278.975647 304.985657,280.753235 302.651947,282.735687 
	C298.061584,277.658173 292.654999,275.299561 286.065887,275.737854 
	C279.558105,276.170776 275.065369,279.222961 273.518127,284.542969 
	C271.936493,289.981201 274.087646,295.645233 279.911285,298.874298 
	C286.145660,302.331177 292.820923,304.984283 299.237549,308.123535 
	C306.091797,311.476929 311.432343,316.244812 312.993134,324.155121 
	C315.525024,336.987213 308.726776,347.678589 295.958069,351.039825 
	C281.464111,354.855255 267.288544,348.607208 260.958008,335.232208 
	C263.371460,333.754486 265.836914,332.244904 268.665833,330.512787 
	C273.088654,339.436676 280.026550,343.627350 289.714844,343.057068 
	C296.814575,342.639130 302.430145,338.835907 303.939331,333.267303 
	C305.739502,326.624939 303.311401,320.774017 296.410828,317.027832 
	C290.287872,313.703796 283.745850,311.162079 277.502777,308.046661 
	C266.982697,302.796875 263.243927,295.811279 264.559204,283.812714 
z"/>
<path fill="#AD7D63" opacity="1.000000" stroke="none" 
	d="
M307.084564,170.198944 
	C303.012909,180.273071 299.051575,189.975647 295.125885,199.692627 
	C291.937744,207.584045 291.956696,207.591705 282.693237,206.579773 
	C283.224854,204.966431 283.636749,203.433258 284.226868,201.972061 
	C287.714935,193.335266 291.111633,184.657440 294.826233,176.118332 
	C296.279999,172.776398 296.104279,169.940796 294.721588,166.627853 
	C287.930725,150.356506 281.359314,133.993561 274.717804,117.659935 
	C273.911560,115.677078 273.150085,113.676010 272.321594,111.565521 
	C273.077393,111.333389 273.512177,111.094795 273.954651,111.079498 
	C282.393402,110.787804 282.397125,110.791878 285.517914,118.796822 
	C290.709930,132.114441 295.896881,145.434052 301.568451,159.991104 
	C304.045380,153.457443 306.116882,147.994522 308.187439,142.531250 
	C311.194000,134.598251 314.182281,126.658249 317.210785,118.733612 
	C320.423248,110.327621 320.439819,110.333954 330.530151,111.496162 
	C322.704651,131.072617 314.957458,150.453110 307.084564,170.198944 
z"/>
<path fill="#AF8168" opacity="1.000000" stroke="none" 
	d="
M211.835846,149.999817 
	C211.835754,157.126648 211.835754,163.753510 211.835754,170.698853 
	C208.508621,170.698853 205.628983,170.698853 202.279755,170.698853 
	C202.279755,153.904160 202.279755,137.318024 202.279755,120.384918 
	C198.782425,120.168282 195.718887,119.978523 192.435364,119.775131 
	C192.435364,116.882790 192.435364,114.295433 192.435364,111.234215 
	C195.514755,111.234215 198.433121,111.234215 202.203705,111.234215 
	C202.203705,108.868500 202.203232,106.962685 202.203766,105.056870 
	C202.206253,96.230850 202.070465,87.402054 202.247269,78.579521 
	C202.462112,67.859604 209.951721,60.674507 220.370148,60.883621 
	C227.319321,61.023098 228.263962,62.168221 227.202713,69.926468 
	C225.038635,69.926468 222.768707,69.829330 220.509888,69.946358 
	C215.546600,70.203484 212.117020,73.135796 211.978134,77.947060 
	C211.713943,87.098671 211.859558,96.262131 211.836594,105.420670 
	C211.832474,107.059776 211.835999,108.698898 211.835999,110.800003 
	C217.119492,110.800003 222.045654,110.800003 227.407562,110.800003 
	C227.407562,113.950699 227.407562,116.647705 227.407562,119.846664 
	C222.533630,119.846664 217.614304,119.846664 211.835922,119.846664 
	C211.835922,130.034485 211.835922,139.767166 211.835846,149.999817 
z"/>
<path fill="#AD7E64" opacity="1.000000" stroke="none" 
	d="
M372.419739,344.442993 
	C360.967773,353.647736 348.204834,354.618530 337.029144,347.345581 
	C326.817108,340.699829 321.935883,328.318787 324.843964,316.438477 
	C327.718048,304.696899 337.500092,296.087463 349.840576,294.438293 
	C360.359222,293.032593 372.216858,299.054901 377.663940,308.569336 
	C383.942230,319.535645 383.092224,331.519226 375.326721,341.221558 
	C374.497192,342.257935 373.570984,343.216919 372.419739,344.442993 
M345.042511,341.894287 
	C345.828094,342.159241 346.599274,342.482971 347.401550,342.680176 
	C356.553619,344.929626 365.627319,341.262848 370.187286,333.492004 
	C374.747040,325.721497 373.735962,316.197693 367.641418,309.510101 
	C361.840027,303.144257 352.362427,301.216095 344.357635,304.997803 
	C337.335083,308.315521 333.405090,313.936493 332.875488,321.747894 
	C332.255859,330.887848 336.448914,337.307678 345.042511,341.894287 
z"/>
<path fill="#AC7C61" opacity="1.000000" stroke="none" 
	d="
M243.752106,165.890717 
	C243.751892,150.459946 243.751892,135.518021 243.751892,120.175644 
	C240.170120,120.175644 237.229431,120.175644 233.878784,120.175644 
	C233.878784,117.071655 233.878784,114.368721 233.878784,111.283768 
	C237.071686,111.125633 240.141052,110.973625 243.758530,110.794464 
	C243.758530,99.924438 243.819031,89.307159 243.732269,78.691086 
	C243.690628,73.594513 244.767365,68.608963 248.989014,65.813011 
	C252.664673,63.378677 257.268616,61.538063 261.623260,61.122929 
	C268.451508,60.471981 269.449585,62.234638 268.357178,69.907578 
	C266.167297,69.907578 263.881866,69.802826 261.609314,69.929276 
	C256.801788,70.196762 253.194550,73.312111 253.094223,78.027344 
	C252.864639,88.817055 253.021622,99.614990 253.021622,110.828598 
	C258.271332,110.828598 263.201324,110.828598 268.551819,110.828598 
	C268.551819,113.943787 268.551819,116.650253 268.551819,119.960281 
	C263.597595,119.960281 258.534821,119.960281 253.070129,119.960281 
	C253.070129,137.128754 253.070129,153.714722 253.070129,170.650421 
	C249.933273,170.650421 247.208099,170.650421 244.081726,170.650421 
	C243.973083,169.241760 243.862701,167.810669 243.752106,165.890717 
z"/>
<path fill="#AD7D62" opacity="1.000000" stroke="none" 
	d="
M153.003815,162.282471 
	C163.276764,163.993347 169.832718,158.550461 169.954437,148.328339 
	C170.099060,136.180679 169.988449,124.029991 169.988449,111.459129 
	C172.896179,111.459129 175.610397,111.459129 179.100098,111.459129 
	C179.100098,115.067467 179.105179,118.821030 179.099075,122.574585 
	C179.083908,131.898972 179.220596,141.226944 179.006531,150.546829 
	C178.725235,162.793808 170.653976,171.355087 159.114197,172.013443 
	C145.422440,172.794571 135.625595,166.113098 134.694489,153.402481 
	C133.678940,139.539185 134.463760,125.543991 134.463760,111.322548 
	C137.385147,111.322548 140.143723,111.322548 143.499756,111.322548 
	C143.499756,118.673882 143.477280,125.963295 143.507004,133.252502 
	C143.530060,138.911911 143.439560,144.580124 143.726959,150.227768 
	C144.023941,156.063919 146.808289,160.311111 153.003815,162.282471 
z"/>
<path fill="#AF8066" opacity="1.000000" stroke="none" 
	d="
M409.830566,274.037048 
	C409.830505,281.175079 409.830505,287.819641 409.830505,295.046936 
	C414.731628,295.046936 419.295929,295.046936 424.279236,295.046936 
	C424.279236,298.161285 424.279236,300.699524 424.279236,303.787292 
	C419.677826,303.787292 415.099823,303.787292 409.922546,303.787292 
	C409.922546,319.697266 409.922546,335.085938 409.922546,350.740845 
	C406.737549,350.740845 404.164276,350.740845 401.029907,350.740845 
	C401.029907,335.194489 401.029907,319.794037 401.029907,304.157074 
	C397.879761,304.007935 395.270660,303.884399 392.264526,303.742096 
	C392.264526,301.074951 392.264526,298.529358 392.264526,295.626099 
	C394.997772,295.425720 397.746368,295.224213 401.022308,294.984009 
	C401.022308,284.829285 400.902710,274.869324 401.056702,264.913605 
	C401.204102,255.381485 408.411194,248.648483 417.815430,248.943314 
	C424.026611,249.138031 424.797821,250.043457 424.217590,257.229736 
	C422.870392,257.229736 421.462372,257.257965 420.055847,257.224976 
	C413.099396,257.061920 409.957764,260.063660 409.839508,267.044342 
	C409.802826,269.210175 409.831757,271.377136 409.830566,274.037048 
z"/>
<path fill="#AB7A5F" opacity="1.000000" stroke="none" 
	d="
M104.971283,81.000290 
	C104.971275,74.200485 104.971275,67.900574 104.971275,61.237835 
	C108.006508,61.237835 110.722527,61.237835 113.783844,61.237835 
	C113.783844,97.606934 113.783844,133.955383 113.783844,170.652008 
	C111.076469,170.652008 108.349617,170.652008 104.971283,170.652008 
	C104.971283,140.936996 104.971283,111.218590 104.971283,81.000290 
z"/>
<path fill="#FAFDFD" opacity="1.000000" stroke="none" 
	d="
M133.630066,304.672272 
	C127.927483,318.381073 122.370209,331.737122 116.910690,345.132965 
	C115.631920,348.270691 113.808998,349.728333 109.760696,348.001038 
	C121.410805,318.072784 133.052841,288.165222 144.983475,257.516327 
	C128.127426,256.329468 112.330185,255.217178 95.995895,254.067078 
	C98.627831,263.524475 100.978325,272.486786 103.744606,281.318878 
	C104.131363,282.553711 106.530670,283.855804 108.048416,283.918701 
	C114.813057,284.198975 121.595886,284.040405 128.402206,284.040405 
	C128.155533,289.497711 125.805107,291.418488 120.756248,291.059082 
	C114.786888,290.634125 108.753418,291.151947 102.772301,290.819397 
	C101.310486,290.738129 99.133774,289.220032 98.661484,287.878326 
	C94.578636,276.279419 90.752922,264.588257 86.979073,252.883179 
	C85.613060,248.646317 87.708679,246.375702 92.285942,246.659409 
	C110.700943,247.800827 129.116486,248.934418 147.534561,250.024948 
	C153.896881,250.401672 155.223846,252.354721 152.814026,258.278107 
	C149.384186,266.708771 145.885040,275.111237 142.202957,284.041229 
	C149.516998,284.041229 156.161301,283.997040 162.804733,284.053467 
	C169.626053,284.111420 171.115799,286.126801 170.228989,292.909851 
	C168.034149,309.697784 166.044052,326.512390 163.894073,343.306366 
	C163.509521,346.310272 163.536865,350.138153 157.814163,348.044556 
	C159.400208,329.325195 160.993271,310.523041 162.639297,291.095856 
	C155.279922,291.095856 148.023438,291.005402 140.775391,291.211487 
	C139.879639,291.236969 138.703888,292.691254 138.216644,293.742432 
	C136.609894,297.208923 135.259735,300.794281 133.630066,304.672272 
z"/>
<path fill="#FEFDFD" opacity="1.000000" stroke="none" 
	d="
M450.154358,340.054504 
	C439.486755,331.301300 438.181122,318.280548 446.768463,309.344849 
	C455.035156,300.742737 468.487549,300.967346 476.403687,309.839722 
	C482.765869,316.970459 483.142090,328.026550 477.277710,335.527039 
	C470.801758,343.809753 460.675751,345.590942 450.154358,340.054504 
z"/>
<path fill="#FEFEFD" opacity="1.000000" stroke="none" 
	d="
M344.682648,341.733704 
	C336.448914,337.307678 332.255859,330.887848 332.875488,321.747894 
	C333.405090,313.936493 337.335083,308.315521 344.357635,304.997803 
	C352.362427,301.216095 361.840027,303.144257 367.641418,309.510101 
	C373.735962,316.197693 374.747040,325.721497 370.187286,333.492004 
	C365.627319,341.262848 356.553619,344.929626 347.401550,342.680176 
	C346.599274,342.482971 345.828094,342.159241 344.682648,341.733704 
z"/>
</svg>